<mxfile host="app.diagrams.net" modified="2024-04-24T17:12:12.236Z" agent="Mozilla/5.0 (Windows NT 10.0; Win64; x64) AppleWebKit/537.36 (KHTML, like Gecko) Chrome/123.0.0.0 Safari/537.36" etag="YKrmP3GHrrpyfEE6P7og" version="24.2.7" type="onedrive">
  <diagram name="Page-1" id="ykh57QHGJMsnP_ePp380">
    <mxGraphModel grid="1" page="0" gridSize="10" guides="1" tooltips="1" connect="1" arrows="1" fold="1" pageScale="1" pageWidth="4681" pageHeight="3300" math="0" shadow="0">
      <root>
        <mxCell id="0" />
        <mxCell id="1" parent="0" />
        <mxCell id="zPF0VfDeFBx_3DAVUX9S-1" value="m01ae" style="rounded=0;whiteSpace=wrap;html=1;fontSize=34;" vertex="1" parent="1">
          <mxGeometry x="120" y="80" width="280" height="40" as="geometry" />
        </mxCell>
        <mxCell id="zPF0VfDeFBx_3DAVUX9S-2" value="&lt;font style=&quot;font-size: 34px;&quot;&gt;m02ae&lt;/font&gt;" style="rounded=0;whiteSpace=wrap;html=1;" vertex="1" parent="1">
          <mxGeometry x="120" y="120" width="280" height="40" as="geometry" />
        </mxCell>
        <mxCell id="zPF0VfDeFBx_3DAVUX9S-3" value="&lt;font style=&quot;font-size: 34px;&quot;&gt;m03ae&lt;/font&gt;" style="rounded=0;whiteSpace=wrap;html=1;" vertex="1" parent="1">
          <mxGeometry x="120" y="160" width="280" height="40" as="geometry" />
        </mxCell>
        <mxCell id="zPF0VfDeFBx_3DAVUX9S-4" value="&lt;font style=&quot;font-size: 34px;&quot;&gt;m04ae&lt;/font&gt;" style="rounded=0;whiteSpace=wrap;html=1;" vertex="1" parent="1">
          <mxGeometry x="120" y="200" width="280" height="40" as="geometry" />
        </mxCell>
        <mxCell id="zPF0VfDeFBx_3DAVUX9S-5" value="&lt;font style=&quot;font-size: 34px;&quot;&gt;m05ae&lt;/font&gt;" style="rounded=0;whiteSpace=wrap;html=1;" vertex="1" parent="1">
          <mxGeometry x="120" y="240" width="280" height="40" as="geometry" />
        </mxCell>
        <mxCell id="zPF0VfDeFBx_3DAVUX9S-7" value="&lt;font style=&quot;font-size: 34px;&quot;&gt;g20uw&lt;/font&gt;" style="rounded=0;whiteSpace=wrap;html=1;" vertex="1" parent="1">
          <mxGeometry x="120" y="400" width="280" height="40" as="geometry" />
        </mxCell>
        <mxCell id="zPF0VfDeFBx_3DAVUX9S-8" value="&lt;font style=&quot;font-size: 34px;&quot;&gt;g21uw&lt;/font&gt;" style="rounded=0;whiteSpace=wrap;html=1;" vertex="1" parent="1">
          <mxGeometry x="120" y="440" width="280" height="40" as="geometry" />
        </mxCell>
        <mxCell id="zPF0VfDeFBx_3DAVUX9S-9" value="" style="endArrow=none;dashed=1;html=1;dashPattern=1 3;strokeWidth=7;rounded=0;entryX=0.5;entryY=1;entryDx=0;entryDy=0;exitX=0.5;exitY=0;exitDx=0;exitDy=0;" edge="1" parent="1" source="zPF0VfDeFBx_3DAVUX9S-7" target="zPF0VfDeFBx_3DAVUX9S-5">
          <mxGeometry width="50" height="50" relative="1" as="geometry">
            <mxPoint x="380" y="420" as="sourcePoint" />
            <mxPoint x="430" y="370" as="targetPoint" />
          </mxGeometry>
        </mxCell>
        <mxCell id="zPF0VfDeFBx_3DAVUX9S-10" value="&lt;b&gt;&lt;font style=&quot;font-size: 55px;&quot;&gt;1661&lt;/font&gt;&lt;/b&gt;" style="text;html=1;align=center;verticalAlign=middle;resizable=0;points=[];autosize=1;strokeColor=none;fillColor=none;" vertex="1" parent="1">
          <mxGeometry x="122" y="302" width="150" height="80" as="geometry" />
        </mxCell>
        <mxCell id="zPF0VfDeFBx_3DAVUX9S-20" value="" style="group" connectable="0" vertex="1" parent="1">
          <mxGeometry x="560" y="-140" width="260" height="260" as="geometry" />
        </mxCell>
        <mxCell id="zPF0VfDeFBx_3DAVUX9S-11" value="&lt;font style=&quot;font-size: 26px;&quot;&gt;m01ae&lt;/font&gt;" style="rounded=0;whiteSpace=wrap;html=1;fontSize=34;" vertex="1" parent="zPF0VfDeFBx_3DAVUX9S-20">
          <mxGeometry width="260" height="26" as="geometry" />
        </mxCell>
        <mxCell id="zPF0VfDeFBx_3DAVUX9S-12" value="&lt;font style=&quot;font-size: 26px;&quot;&gt;m02ae&lt;/font&gt;" style="rounded=0;whiteSpace=wrap;html=1;" vertex="1" parent="zPF0VfDeFBx_3DAVUX9S-20">
          <mxGeometry y="26" width="260" height="26" as="geometry" />
        </mxCell>
        <mxCell id="zPF0VfDeFBx_3DAVUX9S-13" value="&lt;font style=&quot;font-size: 26px;&quot;&gt;m03ae&lt;/font&gt;" style="rounded=0;whiteSpace=wrap;html=1;" vertex="1" parent="zPF0VfDeFBx_3DAVUX9S-20">
          <mxGeometry y="52" width="260" height="26" as="geometry" />
        </mxCell>
        <mxCell id="zPF0VfDeFBx_3DAVUX9S-16" value="&lt;font style=&quot;font-size: 26px;&quot;&gt;g20ae&lt;/font&gt;" style="rounded=0;whiteSpace=wrap;html=1;" vertex="1" parent="zPF0VfDeFBx_3DAVUX9S-20">
          <mxGeometry y="142" width="260" height="26" as="geometry" />
        </mxCell>
        <mxCell id="zPF0VfDeFBx_3DAVUX9S-17" value="&lt;font style=&quot;font-size: 26px;&quot;&gt;g21ae&lt;/font&gt;" style="rounded=0;whiteSpace=wrap;html=1;" vertex="1" parent="zPF0VfDeFBx_3DAVUX9S-20">
          <mxGeometry y="168" width="260" height="26" as="geometry" />
        </mxCell>
        <mxCell id="zPF0VfDeFBx_3DAVUX9S-18" value="" style="endArrow=none;dashed=1;html=1;dashPattern=1 3;strokeWidth=7;rounded=0;entryX=0.5;entryY=1;entryDx=0;entryDy=0;exitX=0.5;exitY=0;exitDx=0;exitDy=0;" edge="1" parent="zPF0VfDeFBx_3DAVUX9S-20" source="zPF0VfDeFBx_3DAVUX9S-16">
          <mxGeometry width="50" height="50" relative="1" as="geometry">
            <mxPoint x="241.42857142857147" y="155" as="sourcePoint" />
            <mxPoint x="130" y="64" as="targetPoint" />
          </mxGeometry>
        </mxCell>
        <mxCell id="zPF0VfDeFBx_3DAVUX9S-37" value="132" style="text;html=1;align=center;verticalAlign=middle;whiteSpace=wrap;rounded=0;fontSize=31;" vertex="1" parent="1">
          <mxGeometry x="612" y="-44" width="60" height="30" as="geometry" />
        </mxCell>
        <mxCell id="zPF0VfDeFBx_3DAVUX9S-38" value="&lt;font style=&quot;font-size: 26px;&quot;&gt;m01ae&lt;/font&gt;" style="rounded=0;whiteSpace=wrap;html=1;fontSize=34;" vertex="1" parent="1">
          <mxGeometry x="560" y="120" width="260" height="26" as="geometry" />
        </mxCell>
        <mxCell id="zPF0VfDeFBx_3DAVUX9S-39" value="&lt;font style=&quot;font-size: 26px;&quot;&gt;m02ae&lt;/font&gt;" style="rounded=0;whiteSpace=wrap;html=1;" vertex="1" parent="1">
          <mxGeometry x="560" y="146" width="260" height="26" as="geometry" />
        </mxCell>
        <mxCell id="zPF0VfDeFBx_3DAVUX9S-40" value="&lt;font style=&quot;font-size: 26px;&quot;&gt;m03ae&lt;/font&gt;" style="rounded=0;whiteSpace=wrap;html=1;" vertex="1" parent="1">
          <mxGeometry x="560" y="172" width="260" height="26" as="geometry" />
        </mxCell>
        <mxCell id="zPF0VfDeFBx_3DAVUX9S-41" value="&lt;font style=&quot;font-size: 26px;&quot;&gt;g20ae&lt;/font&gt;" style="rounded=0;whiteSpace=wrap;html=1;" vertex="1" parent="1">
          <mxGeometry x="560" y="262" width="260" height="26" as="geometry" />
        </mxCell>
        <mxCell id="zPF0VfDeFBx_3DAVUX9S-42" value="&lt;font style=&quot;font-size: 26px;&quot;&gt;g21ae&lt;/font&gt;" style="rounded=0;whiteSpace=wrap;html=1;" vertex="1" parent="1">
          <mxGeometry x="560" y="288" width="260" height="26" as="geometry" />
        </mxCell>
        <mxCell id="zPF0VfDeFBx_3DAVUX9S-43" value="" style="endArrow=none;dashed=1;html=1;dashPattern=1 3;strokeWidth=7;rounded=0;entryX=0.5;entryY=1;entryDx=0;entryDy=0;exitX=0.5;exitY=0;exitDx=0;exitDy=0;" edge="1" parent="1" source="zPF0VfDeFBx_3DAVUX9S-41">
          <mxGeometry width="50" height="50" relative="1" as="geometry">
            <mxPoint x="801.4285714285714" y="275" as="sourcePoint" />
            <mxPoint x="690" y="184" as="targetPoint" />
          </mxGeometry>
        </mxCell>
        <mxCell id="zPF0VfDeFBx_3DAVUX9S-44" value="132" style="text;html=1;align=center;verticalAlign=middle;whiteSpace=wrap;rounded=0;fontSize=31;" vertex="1" parent="1">
          <mxGeometry x="612" y="216" width="60" height="30" as="geometry" />
        </mxCell>
        <mxCell id="zPF0VfDeFBx_3DAVUX9S-45" value="&lt;font style=&quot;font-size: 26px;&quot;&gt;m01ae&lt;/font&gt;" style="rounded=0;whiteSpace=wrap;html=1;fontSize=34;" vertex="1" parent="1">
          <mxGeometry x="560" y="460" width="260" height="26" as="geometry" />
        </mxCell>
        <mxCell id="zPF0VfDeFBx_3DAVUX9S-46" value="&lt;font style=&quot;font-size: 26px;&quot;&gt;m02ae&lt;/font&gt;" style="rounded=0;whiteSpace=wrap;html=1;" vertex="1" parent="1">
          <mxGeometry x="560" y="486" width="260" height="26" as="geometry" />
        </mxCell>
        <mxCell id="zPF0VfDeFBx_3DAVUX9S-47" value="&lt;font style=&quot;font-size: 26px;&quot;&gt;m03ae&lt;/font&gt;" style="rounded=0;whiteSpace=wrap;html=1;" vertex="1" parent="1">
          <mxGeometry x="560" y="512" width="260" height="26" as="geometry" />
        </mxCell>
        <mxCell id="zPF0VfDeFBx_3DAVUX9S-48" value="&lt;font style=&quot;font-size: 26px;&quot;&gt;g20ae&lt;/font&gt;" style="rounded=0;whiteSpace=wrap;html=1;" vertex="1" parent="1">
          <mxGeometry x="560" y="602" width="260" height="26" as="geometry" />
        </mxCell>
        <mxCell id="zPF0VfDeFBx_3DAVUX9S-49" value="&lt;font style=&quot;font-size: 26px;&quot;&gt;g21ae&lt;/font&gt;" style="rounded=0;whiteSpace=wrap;html=1;" vertex="1" parent="1">
          <mxGeometry x="560" y="628" width="260" height="26" as="geometry" />
        </mxCell>
        <mxCell id="zPF0VfDeFBx_3DAVUX9S-50" value="" style="endArrow=none;dashed=1;html=1;dashPattern=1 3;strokeWidth=7;rounded=0;entryX=0.5;entryY=1;entryDx=0;entryDy=0;exitX=0.5;exitY=0;exitDx=0;exitDy=0;" edge="1" parent="1" source="zPF0VfDeFBx_3DAVUX9S-48">
          <mxGeometry width="50" height="50" relative="1" as="geometry">
            <mxPoint x="801.4285714285714" y="615" as="sourcePoint" />
            <mxPoint x="690" y="524" as="targetPoint" />
          </mxGeometry>
        </mxCell>
        <mxCell id="zPF0VfDeFBx_3DAVUX9S-51" value="132" style="text;html=1;align=center;verticalAlign=middle;whiteSpace=wrap;rounded=0;fontSize=31;" vertex="1" parent="1">
          <mxGeometry x="612" y="556" width="60" height="30" as="geometry" />
        </mxCell>
        <mxCell id="zPF0VfDeFBx_3DAVUX9S-53" value="" style="endArrow=none;dashed=1;html=1;rounded=0;fontSize=36;strokeWidth=5;" edge="1" parent="1">
          <mxGeometry width="50" height="50" relative="1" as="geometry">
            <mxPoint x="690" y="445" as="sourcePoint" />
            <mxPoint x="690" y="327" as="targetPoint" />
          </mxGeometry>
        </mxCell>
        <mxCell id="zPF0VfDeFBx_3DAVUX9S-55" value="" style="endArrow=classic;html=1;rounded=0;strokeWidth=4;" edge="1" parent="1">
          <mxGeometry width="50" height="50" relative="1" as="geometry">
            <mxPoint x="420" y="280" as="sourcePoint" />
            <mxPoint x="550" y="-30" as="targetPoint" />
          </mxGeometry>
        </mxCell>
        <mxCell id="zPF0VfDeFBx_3DAVUX9S-56" value="" style="endArrow=classic;html=1;rounded=0;strokeWidth=4;" edge="1" parent="1">
          <mxGeometry width="50" height="50" relative="1" as="geometry">
            <mxPoint x="420" y="280" as="sourcePoint" />
            <mxPoint x="540" y="220" as="targetPoint" />
          </mxGeometry>
        </mxCell>
        <mxCell id="zPF0VfDeFBx_3DAVUX9S-57" value="" style="endArrow=classic;html=1;rounded=0;strokeWidth=4;" edge="1" parent="1">
          <mxGeometry width="50" height="50" relative="1" as="geometry">
            <mxPoint x="420" y="280" as="sourcePoint" />
            <mxPoint x="540" y="550" as="targetPoint" />
          </mxGeometry>
        </mxCell>
      </root>
    </mxGraphModel>
  </diagram>
</mxfile>
